<svg xmlns="http://www.w3.org/2000/svg" version="1.1" xmlns:xlink="http://www.w3.org/1999/xlink" xmlns:svgjs="http://svgjs.dev/svgjs" width="1000" height="707" viewBox="0 0 1000 707"><g transform="matrix(1,0,0,1,-0.6060606060606233,0)"><svg viewBox="0 0 396 280" data-background-color="#f9e17e" preserveAspectRatio="xMidYMid meet" height="707" width="1000" xmlns="http://www.w3.org/2000/svg" xmlns:xlink="http://www.w3.org/1999/xlink"><g id="tight-bounds" transform="matrix(1,0,0,1,0.2400000000000091,0)"><svg viewBox="0 0 395.52 280" height="280" width="395.52"><g><svg viewBox="0 0 395.52 280" height="280" width="395.52"><g><svg viewBox="0 0 395.52 280" height="280" width="395.52"><g><svg viewBox="0 0 395.52 280" height="280" width="395.52"><g><svg viewBox="0 0 395.52 280" height="280" width="395.52"><g transform="matrix(1,0,0,1,104.53504196836558,74.00336708925556)"><svg viewBox="0 0 186.44991606326883 131.99326582148888" height="131.99326582148888" width="186.44991606326883"><g><circle r="66" cx="93.22495803163442" cy="65.99663291074444" fill="#f5ba41" data-fill-palette-color="accent"></circle></g></svg></g><path d="M78.597 84.425V84.425C79.523 84.758 80.333 85.138 81.027 85.565 81.726 85.994 82.329 86.495 82.835 87.068 83.334 87.639 83.754 88.292 84.095 89.026 84.434 89.767 84.708 90.609 84.917 91.552V91.552L93.982 90.027 92.665 98.594 84.109 98.615 83.384 100.841 90.67 103.822 87.923 111.469C85.239 110.441 82.569 109.418 79.911 108.399 77.244 107.384 74.573 106.353 71.896 105.307V105.307C70.542 104.799 69.198 104.291 67.865 103.784 66.538 103.278 65.203 102.746 63.86 102.185V102.185C63.85 101.242 63.889 100.331 63.978 99.452 64.066 98.573 64.199 97.707 64.378 96.853 64.562 96.001 64.782 95.152 65.037 94.304 65.294 93.45 65.58 92.585 65.895 91.709V91.709C66.381 90.354 67.04 89.114 67.871 87.99 68.696 86.863 69.655 85.945 70.75 85.235 71.848 84.534 73.061 84.091 74.387 83.905 75.713 83.72 77.116 83.893 78.597 84.425ZM76.302 92.598V92.598C75.804 92.419 75.323 92.321 74.86 92.304 74.394 92.293 73.962 92.366 73.565 92.522 73.171 92.687 72.815 92.936 72.496 93.269 72.183 93.605 71.931 94.038 71.741 94.567V94.567C71.655 94.807 71.587 95.046 71.537 95.284 71.481 95.52 71.447 95.753 71.435 95.984V95.984L77.95 98.644 78.103 98.219C78.287 97.708 78.406 97.168 78.462 96.597 78.52 96.02 78.489 95.472 78.369 94.952 78.25 94.433 78.024 93.964 77.69 93.545 77.357 93.127 76.894 92.811 76.302 92.598ZM96.165 44.054L120.127 55.345 114.836 63.187 110.882 61.202 108.033 64.435 110.612 67.98 103.534 74.582 89.617 52.288ZM104.224 60.02L106.097 57.895 100.212 54.623ZM135.681 13.928L144.468 10.183 142.232 25.566 155.232 33.866 148.179 39.3 139.303 34.726 142.997 42.441 136.167 46.352 123.282 20.412 131.316 16.766 134.672 24.657ZM191.483 16.811V16.811C191.717 18.523 191.622 20.059 191.199 21.421 190.783 22.776 190.118 23.948 189.205 24.937 188.292 25.927 187.175 26.728 185.853 27.34 184.531 27.953 183.077 28.368 181.491 28.584V28.584C180.88 28.667 180.196 28.679 179.438 28.62 178.685 28.554 177.918 28.452 177.136 28.316 176.359 28.171 175.604 28.007 174.869 27.824 174.14 27.632 173.49 27.451 172.919 27.278V27.278L172.693 19.443C173.841 19.935 175.081 20.259 176.414 20.416 177.753 20.571 179.046 20.564 180.293 20.394V20.394C180.532 20.361 180.82 20.312 181.155 20.246 181.492 20.186 181.806 20.086 182.098 19.945 182.39 19.811 182.63 19.636 182.817 19.421 183.004 19.206 183.074 18.923 183.026 18.572V18.572C182.993 18.333 182.889 18.141 182.714 17.996 182.545 17.85 182.334 17.74 182.081 17.666 181.828 17.593 181.548 17.546 181.241 17.527 180.935 17.515 180.638 17.515 180.349 17.527 180.053 17.541 179.783 17.564 179.537 17.597 179.285 17.632 179.083 17.659 178.93 17.68V17.68C177.862 17.826 176.861 17.773 175.928 17.522 174.994 17.264 174.167 16.846 173.446 16.268 172.724 15.684 172.125 14.958 171.649 14.09 171.178 13.215 170.87 12.24 170.723 11.165V11.165C170.522 9.692 170.638 8.332 171.069 7.083 171.508 5.841 172.166 4.741 173.042 3.783 173.926 2.832 174.982 2.049 176.209 1.436 177.43 0.823 178.728 0.424 180.101 0.236V0.236C180.718 0.152 181.351 0.09 182.001 0.048 182.657 0 183.314-0.012 183.973 0.013 184.632 0.038 185.279 0.098 185.914 0.194 186.555 0.283 187.165 0.423 187.745 0.614V0.614L188.075 8.314C187.186 8.138 186.264 8.017 185.309 7.951 184.347 7.886 183.425 7.914 182.542 8.034V8.034C182.376 8.056 182.168 8.088 181.917 8.129 181.659 8.171 181.392 8.224 181.117 8.289 180.843 8.36 180.565 8.449 180.282 8.555 180.005 8.653 179.76 8.771 179.549 8.908 179.338 9.045 179.178 9.209 179.069 9.399 178.954 9.597 178.919 9.812 178.964 10.042V10.042C179.015 10.319 179.148 10.527 179.363 10.667 179.579 10.813 179.846 10.912 180.164 10.963 180.482 11.015 180.829 11.035 181.206 11.024 181.576 11.007 181.943 10.978 182.309 10.935 182.668 10.892 183.003 10.847 183.314 10.798 183.625 10.748 183.885 10.723 184.095 10.722V10.722C185.098 10.646 186.026 10.735 186.879 10.991 187.724 11.241 188.466 11.63 189.106 12.157 189.738 12.679 190.26 13.335 190.671 14.124 191.076 14.913 191.347 15.809 191.483 16.811ZM239.187 6.104L233.959 32.549 224.633 30.947 226.442 22.407 222.195 21.467 220.151 29.491 211.884 27.66 218.336 1.868 227.022 4.223 223.539 17.351 227.638 18.259 230.823 4.016ZM265.962 18.57L274.855 23.292 259.84 44.295 252.783 40.556ZM296.483 40.527L310.05 56.031 303.882 61.153 300.005 57.057 285.56 67.741 280.002 62.006 293.537 50.263 289.608 46.213ZM329.49 93.444L308.49 109.59 303.936 101.299 307.51 98.69 305.938 94.678 301.606 95.351 298.971 86.037 325.162 83.856ZM311.605 93.31L312.638 95.947 318.24 92.21ZM87.65 193.673V193.673C86.73 194.003 85.867 194.224 85.06 194.335 84.254 194.447 83.473 194.443 82.718 194.322 81.972 194.206 81.237 193.971 80.513 193.619 79.783 193.269 79.037 192.797 78.276 192.202V192.202L72.282 199.113 67.859 191.693 74.427 186.263 73.57 184.084 66.084 186.418 63.35 178.798C66.061 177.889 68.762 176.98 71.453 176.072 74.146 175.169 76.85 174.27 79.566 173.374V173.374C80.93 172.913 82.285 172.455 83.63 172.001 84.973 171.54 86.339 171.103 87.728 170.691V170.691C88.326 171.408 88.87 172.13 89.359 172.858 89.85 173.593 90.298 174.343 90.7 175.109 91.103 175.875 91.474 176.671 91.813 177.495 92.155 178.311 92.483 179.154 92.795 180.024V180.024C93.279 181.373 93.561 182.744 93.642 184.138 93.72 185.526 93.561 186.839 93.166 188.076 92.77 189.314 92.12 190.426 91.215 191.412 90.313 192.39 89.125 193.144 87.65 193.673ZM84.237 185.944V185.944C84.735 185.766 85.164 185.533 85.524 185.248 85.89 184.96 86.177 184.629 86.384 184.256 86.586 183.885 86.703 183.469 86.737 183.009 86.767 182.557 86.686 182.063 86.494 181.527V181.527C86.41 181.294 86.312 181.07 86.199 180.854 86.088 180.645 85.966 180.443 85.833 180.249V180.249L79.141 182.33 79.294 182.756C79.475 183.26 79.723 183.754 80.039 184.238 80.359 184.714 80.731 185.114 81.153 185.439 81.573 185.758 82.045 185.973 82.569 186.084 83.088 186.203 83.644 186.157 84.237 185.944ZM116.614 219.287L102.449 241.547 95.371 235.333 97.823 231.674 94.988 228.456 91.168 230.562 85.53 222.732 109.305 211.778ZM99.825 225.24L101.697 227.365 105.67 221.952ZM148.993 241.956L157.045 247.021 143.196 253.921 143.787 269.275 135.328 266.593 134.028 256.73 129.816 264.128 122.743 260.767 136.649 235.496 144.19 239.998 139.649 247.224ZM190.518 271.211V271.211C190.285 272.917 189.787 274.366 189.022 275.559 188.258 276.752 187.304 277.7 186.161 278.402 185.023 279.112 183.735 279.585 182.297 279.821 180.867 280.052 179.362 280.059 177.783 279.844V279.844C177.173 279.76 176.517 279.59 175.815 279.332 175.107 279.073 174.398 278.77 173.689 278.423 172.972 278.075 172.288 277.715 171.636 277.342 170.984 276.969 170.41 276.624 169.912 276.306V276.306L171.779 268.724C172.747 269.505 173.852 270.149 175.093 270.657 176.336 271.158 177.581 271.493 178.829 271.663V271.663C179.061 271.695 179.348 271.724 179.689 271.75 180.029 271.783 180.358 271.774 180.676 271.723 180.987 271.671 181.262 271.563 181.5 271.4 181.738 271.243 181.88 270.992 181.928 270.647V270.647C181.96 270.408 181.915 270.196 181.792 270.01 181.662 269.823 181.488 269.661 181.27 269.523 181.046 269.384 180.788 269.265 180.498 269.164 180.207 269.07 179.92 268.991 179.638 268.925 179.357 268.86 179.09 268.81 178.838 268.775 178.592 268.742 178.393 268.715 178.241 268.694V268.694C177.172 268.548 176.226 268.23 175.401 267.739 174.576 267.248 173.893 266.627 173.353 265.878 172.821 265.122 172.441 264.266 172.214 263.309 171.994 262.347 171.957 261.331 172.102 260.263V260.263C172.303 258.79 172.779 257.513 173.527 256.433 174.276 255.352 175.201 254.472 176.301 253.79 177.401 253.109 178.621 252.641 179.96 252.384 181.3 252.121 182.654 252.083 184.021 252.269V252.269C184.631 252.353 185.255 252.461 185.892 252.596 186.537 252.724 187.17 252.888 187.792 253.088 188.42 253.289 189.027 253.517 189.614 253.773 190.193 254.034 190.741 254.332 191.256 254.666V254.666L189.516 262.143C188.705 261.742 187.852 261.382 186.956 261.064 186.054 260.745 185.161 260.525 184.279 260.404V260.404C184.119 260.383 183.91 260.358 183.65 260.329 183.397 260.301 183.13 260.281 182.847 260.27 182.558 260.264 182.266 260.272 181.972 260.292 181.678 260.32 181.411 260.371 181.171 260.447 180.937 260.523 180.739 260.638 180.576 260.791 180.413 260.945 180.322 261.142 180.303 261.382V261.382C180.279 261.656 180.352 261.889 180.522 262.081 180.692 262.274 180.922 262.44 181.214 262.581 181.507 262.716 181.833 262.825 182.193 262.908 182.559 262.998 182.921 263.071 183.279 263.127 183.636 263.182 183.971 263.228 184.284 263.264 184.596 263.3 184.851 263.345 185.046 263.398V263.398C186.033 263.594 186.9 263.925 187.648 264.392 188.394 264.866 189.002 265.439 189.471 266.111 189.947 266.784 190.274 267.552 190.454 268.415 190.633 269.284 190.654 270.216 190.518 271.211ZM233.275 248.913L239.664 274.997 230.572 277.472 228.624 268.994 224.397 269.929 225.914 278.04 217.686 279.86 212.664 253.864 221.501 252.33 223.873 265.653 227.952 264.75 224.852 250.55ZM252.95 241.109L261.27 235.512 272.682 258.569 266.08 263.008ZM276.059 223.013L289.515 207.519 295.403 212.901 291.89 217.287 304.413 230.085 299.505 236.347 286.072 224.594 282.611 229.026ZM304.068 178.007L330.344 180.403 328.063 189.542 323.687 189.037 322.124 193.032 325.746 195.463 321.368 204.061 300.741 187.944ZM317.049 190.205L318.081 187.567 311.45 186.515ZM60.495 140.722C60.495 134.812 65.287 130.021 71.197 130.021 77.107 130.021 81.898 134.812 81.898 140.722 81.898 146.633 77.107 151.424 71.197 151.424 65.287 151.424 60.495 146.633 60.495 140.722ZM313.622 140.722C313.622 134.812 318.413 130.021 324.323 130.021 330.233 130.021 335.025 134.812 335.025 140.722 335.025 146.633 330.233 151.424 324.323 151.424 318.413 151.424 313.622 146.633 313.622 140.722Z" fill="#f5ba41" data-fill-palette-color="primary"></path></svg></g></svg></g></svg></g></svg></g><defs></defs></svg><rect width="395.52" height="280" fill="none" stroke="none" visibility="hidden"></rect></g></svg></g></svg>